PathFileType	4	(X/Y/Z)	c:/Users/goper/Files/vsCode/490R/osim_files/C05/C05_SSWS_06.trc
DataRate	CameraRate	NumFrames	NumMarkers	Units                	OrigDataRate	OrigDataStartFrame	OrigNumFrames
250.00	250.00	10	36	mm	250.0	2748	3663
                Frame#	Time	LPSIS			LASIS			LTH1			LTH2			LTH3			LTH4			LLFE			LMFE			LSH1			LSH2			LSH3			LSH4			LLMAL			LMMAL			LCAL			LMTP5			LTOE			LMTP1			RPSIS			RASIS			RTH1			RTH2			RTH3			RTH4			RLFE			RMFE			RSH1			RSH2			RSH3			RSH4			RLMAL			RMMAL			RCAL			RMTP1			RTOE			RMTP5		
		X1	Y1	Z1	X2	Y2	Z2	X3	Y3	Z3	X4	Y4	Z4	X5	Y5	Z5	X6	Y6	Z6	X7	Y7	Z7	X8	Y8	Z8	X9	Y9	Z9	X10	Y10	Z10	X11	Y11	Z11	X12	Y12	Z12	X13	Y13	Z13	X14	Y14	Z14	X15	Y15	Z15	X16	Y16	Z16	X17	Y17	Z17	X18	Y18	Z18	X19	Y19	Z19	X20	Y20	Z20	X21	Y21	Z21	X22	Y22	Z22	X23	Y23	Z23	X24	Y24	Z24	X25	Y25	Z25	X26	Y26	Z26	X27	Y27	Z27	X28	Y28	Z28	X29	Y29	Z29	X30	Y30	Z30	X31	Y31	Z31	X32	Y32	Z32	X33	Y33	Z33	X34	Y34	Z34	X35	Y35	Z35	X36	Y36	Z36

2748	10.98800	-1383.74683	1015.58655	268.59573	-1587.11328	985.70197	306.20990	-1576.99780	669.15875	355.69052	-1608.83691	615.15942	345.04538	-1647.28235	701.38403	356.63669	-1668.94812	644.02893	345.38382	-1691.89587	540.42255	323.41260	-1688.06323	533.93372	208.47046	-1662.84778	345.39526	330.91287	-1681.50195	305.71454	325.92960	-1723.04077	365.25177	341.17700	-1732.03247	322.87637	332.89346	-1791.02234	102.44044	294.92896	-1813.60559	128.12570	213.25883	-1749.19177	61.44728	238.62523	-1941.17090	89.45558	326.17941	-1964.18042	136.52573	266.29562	-1960.84851	115.85235	217.57225	-1379.12952	1029.67432	161.12825	-1564.78857	988.32013	74.62446	-1376.86829	665.42773	43.15821	-1377.73877	604.02502	57.35629	-1452.49561	659.87402	44.50352	-1442.64587	599.01379	57.68219	0.00000	0.00000	0.00000	-1393.14636	508.97256	76.23624	-1252.51050	394.54846	71.56459	-1237.27710	349.12021	78.80325	-1307.06433	366.54233	73.06963	-1284.56860	326.48792	80.57885	-1152.11255	128.10406	128.99521	-1179.57788	135.40002	212.95490	-1083.20508	111.35415	179.67633	-1289.31372	42.65734	198.43829	-1311.26697	59.60603	148.96217	-1253.58716	38.36790	89.44688
2749	10.99200	-1389.36340	1015.19214	269.03854	-1592.77063	985.19751	306.28271	-1582.74133	669.04401	355.30267	-1614.43250	615.05133	344.39716	-1653.10071	701.18762	355.92407	-1674.70679	643.79395	344.55905	-1697.53235	540.24951	322.39688	-1692.98242	533.63129	207.93980	-1667.27197	345.07004	329.93222	-1686.72534	305.84143	325.72958	-1727.48547	364.81058	340.25787	-1736.05371	322.22711	332.63840	-1793.54846	102.11718	294.05048	-1816.57349	126.85558	212.22453	-1750.76636	62.16295	238.03532	-1942.89355	86.65843	325.64026	-1967.29224	132.96805	265.55313	-1963.46729	111.54008	216.97845	-1384.60120	1029.09619	161.49269	-1570.09546	987.55170	74.72688	-1381.71924	664.87897	44.05371	-1382.60449	603.40784	58.21593	-1457.35803	659.16040	45.07578	-1447.41394	598.29742	58.19593	0.00000	0.00000	0.00000	-1397.97864	508.29935	76.79934	-1256.26135	395.06726	71.86481	-1240.58508	349.75986	79.11346	-1310.54004	366.56522	73.39491	-1287.79285	326.68738	81.04826	-1153.24597	129.46260	128.73193	-1180.86426	136.51593	212.70282	-1084.30896	113.42519	179.41724	-1289.32910	42.59052	198.18640	-1311.50244	59.38831	148.83037	-1253.73999	38.41468	89.41316
2750	10.99600	-1394.88452	1014.84930	269.45343	-1598.36572	984.81201	306.34476	-1588.84888	668.65173	355.25934	-1619.94409	614.95990	343.80811	-1658.76941	700.96643	355.23892	-1680.12317	643.56537	343.73981	-1702.89648	540.25085	321.42850	-1697.47998	533.19843	207.23871	-1671.65894	344.88062	328.97485	-1691.06909	305.53522	324.99936	-1731.91833	364.43634	339.32083	-1740.70691	321.93994	331.04172	-1796.04236	101.88029	293.25568	-1819.55396	125.52345	211.28676	-1752.32678	62.87600	237.51294	-1944.62268	83.66980	325.05182	-1970.40442	129.21841	264.60764	-1966.04736	107.12574	216.34003	-1389.95813	1028.60291	161.84616	-1575.49524	986.80487	74.78043	-1386.68237	664.32715	44.96038	-1387.58606	602.89075	59.06544	-1462.21960	658.40485	45.58567	-1452.39062	597.59601	58.72880	0.00000	0.00000	0.00000	-1402.73120	507.57227	77.27711	-1260.05750	395.63107	72.18492	-1243.95447	350.52008	79.39758	-1314.15369	366.64273	73.83945	-1290.92395	326.99777	81.30900	-1154.31885	130.86807	128.45010	-1182.14111	137.73329	212.45029	-1085.37207	115.63968	179.12979	-1289.55786	42.68629	198.11377	-1311.75024	59.13925	148.68036	-1253.92407	38.48714	89.38360
2751	11.00000	-1400.56995	1014.53632	269.90411	-1604.06250	984.46979	306.48727	-1593.70764	669.10156	354.52460	-1625.30847	614.95129	343.36359	-1664.38867	700.88373	354.46338	-1685.63977	643.38306	342.91254	-1707.97827	540.18878	320.65762	-1701.58496	532.79285	206.39145	-1676.12427	344.81702	327.95041	-1694.36511	304.67746	322.89432	-1736.47327	364.08688	338.52017	-1744.81836	321.44113	330.95703	-1798.44702	101.55129	292.64340	-1822.26746	124.24432	210.46919	-1753.75964	63.54418	237.22757	-1946.28308	80.39312	323.83868	-1973.43286	125.40742	263.59091	-1968.39075	102.79295	215.49789	-1395.61255	1028.10095	162.21982	-1580.89185	986.05737	74.74891	-1391.75000	663.73938	45.86287	-1392.50061	602.31097	59.92149	-1467.33826	657.70972	46.12500	-1457.27893	596.89069	59.22542	0.00000	0.00000	0.00000	-1407.83545	506.89246	77.88055	-1264.01074	396.27008	72.51467	-1247.49377	351.26071	79.69412	-1317.80481	366.66852	74.18791	-1294.23987	327.30792	81.61472	-1155.65833	132.41502	128.11977	-1183.56738	139.20532	212.28688	-1086.60718	117.86602	178.79024	-1289.78662	42.79047	198.07944	-1311.96716	58.82817	148.50233	-1254.09705	38.55759	89.33971
2752	11.00400	-1406.25220	1014.39075	270.33243	-1609.80896	984.23102	306.53015	-1599.19580	669.16565	354.29938	-1630.57935	614.89929	342.95920	-1670.00110	700.78448	353.62686	-1690.97070	643.25043	342.11969	-1712.69934	540.05115	320.18185	-1705.49780	532.44086	205.49960	-1680.71680	344.82550	327.02304	-1699.72107	305.38385	323.19003	-1741.04590	363.86273	337.83353	-1749.34302	321.45032	329.85992	-1800.73926	101.13344	292.20615	-1824.62573	123.03557	209.85754	-1755.07715	64.15147	237.05684	-1948.14282	77.53008	323.46646	-1976.16248	121.69139	262.43835	-1970.95789	98.70930	214.85912	-1401.12183	1027.70129	162.60149	-1586.34045	985.32898	74.85844	-1396.76892	663.28131	46.87457	-1397.58142	601.80096	60.81640	-1472.29602	656.99872	46.67625	-1462.36194	596.20056	59.75664	0.00000	0.00000	0.00000	-1412.78894	506.23187	78.35439	-1268.09839	396.88690	72.83159	-1251.08459	352.01703	79.93114	-1321.65967	366.71814	74.49469	-1297.54797	327.61160	81.86735	-1157.01794	133.92183	127.76586	-1184.98706	140.51634	212.02715	-1087.80542	120.37266	178.50838	-1290.01880	42.93018	198.08255	-1312.13916	58.46463	148.29898	-1254.26331	38.61958	89.30083
2753	11.00800	-1411.89270	1014.23065	270.73611	-1615.40759	984.09351	306.67966	-1604.55566	669.28986	354.23737	-1635.82532	614.89655	342.70059	-1675.53149	700.73553	352.89938	-1696.24731	643.03723	341.43103	-1717.41443	540.02698	319.84485	-1708.98596	532.05463	204.54817	-1685.25476	344.94864	326.12628	-1704.05444	305.19818	322.40848	-1745.76746	363.68143	337.13547	-1753.95471	320.81812	329.46176	-1802.84448	100.69196	291.94067	-1826.67688	121.82920	209.36417	-1756.30542	64.70908	237.03479	-1949.91748	74.54637	322.54300	-1978.60352	118.27817	261.27142	-1972.07092	95.06453	213.46584	-1406.06128	1027.57483	162.76312	-1591.69946	984.74359	74.85038	-1402.03162	662.74823	47.88632	-1402.77344	601.29474	61.73181	-1477.50610	656.37909	47.24187	-1467.49243	595.58667	60.22760	0.00000	0.00000	0.00000	-1418.09277	505.51242	79.02735	-1272.29956	397.54788	73.09455	-1254.76318	352.90775	80.13647	-1325.42664	366.82599	74.77759	-1301.07788	327.91537	82.08664	-1158.33484	135.61559	127.40115	-1186.47461	141.94173	211.65782	-1089.12024	122.88663	178.18054	-1290.20459	42.99203	198.08272	-1312.23657	58.06035	148.18465	-1254.44885	38.70111	89.27982
2754	11.01200	-1417.70874	1014.09534	271.23376	-1621.06067	984.01239	306.73880	-1609.93115	669.29755	354.24704	-1641.16321	614.95978	342.55765	-1681.01233	700.83130	352.15555	-1701.63318	643.00861	340.79086	-1722.06445	539.84888	319.70767	-1712.72351	531.87744	203.59460	-1689.90808	345.06647	325.48108	-1708.37073	305.28012	321.89844	-1750.40735	363.38651	336.66418	-1758.09924	320.78412	328.87988	-1804.86658	100.17288	291.74503	-1828.55676	120.85473	208.99721	-1757.37793	65.15432	237.11143	-1951.74133	72.19017	320.97891	-1980.66772	115.01840	260.15186	-1973.55176	91.94495	212.34773	-1411.69971	1027.15051	163.17960	-1597.43762	984.11285	74.96962	-1407.32056	662.23724	48.90008	-1408.04700	600.70972	62.63458	-1482.84534	655.74707	47.76803	-1472.81128	594.96155	60.75240	0.00000	0.00000	0.00000	-1423.30273	504.87491	79.52311	-1276.65845	398.27890	73.39916	-1258.66895	353.74994	80.36377	-1329.45862	367.02496	75.02692	-1304.71838	328.32166	82.33139	-1159.86487	137.24223	127.05804	-1188.13708	143.36577	211.35614	-1090.65503	125.48775	177.91531	-1290.45874	42.98672	198.10730	-1312.31494	57.69287	148.15331	-1254.67065	38.77356	89.24890
2755	11.01600	-1423.43469	1014.19647	271.70374	-1626.77563	984.04120	306.77649	-1616.12268	669.44476	353.91159	-1646.44226	615.01495	342.55640	-1686.64355	700.87469	351.39429	-1706.88794	642.93396	340.19373	-1726.99524	539.86945	319.62576	-1716.13782	531.71588	202.78728	-1694.41138	345.35675	324.97247	-1712.83167	305.67740	321.78937	-1755.05847	363.14777	336.26672	-1762.73865	320.46283	328.20044	-1806.56152	99.73704	291.60342	-1830.15735	119.93829	208.65041	-1758.40479	65.59832	237.18239	-1953.32654	69.79147	320.07736	-1982.64587	112.01086	259.12155	-1974.73938	88.98177	211.37996	-1418.10474	1026.59790	163.61565	-1602.87549	983.57397	75.06192	-1412.70203	661.78778	49.91764	-1413.40735	600.17310	63.58606	-1488.21948	655.20630	48.27626	-1478.13062	594.34314	61.24898	0.00000	0.00000	0.00000	-1428.75964	504.23477	80.01740	-1281.14148	399.02429	73.67028	-1262.65967	354.66745	80.63329	-1333.56311	367.24481	75.31826	-1308.37585	328.82312	82.54856	-1161.44031	139.08545	126.65831	-1189.92480	144.87599	210.97774	-1092.25769	128.26088	177.64447	-1290.77722	42.97383	198.08237	-1312.29053	57.34040	148.17639	-1254.86353	38.88254	89.19344
2756	11.02000	-1429.03882	1014.27765	272.04535	-1632.41296	984.07837	306.91348	-1621.69751	669.68140	353.96167	-1651.93445	615.16840	342.55811	-1692.14856	701.11407	350.62900	-1712.49268	643.11993	339.66998	-1732.16602	539.99249	319.50732	-1719.57935	531.45465	202.51448	-1698.75391	345.83102	324.72345	-1716.70630	305.88373	321.37088	-1759.70642	362.93555	335.84531	-1766.73096	320.15594	328.51019	-1808.16333	99.35081	291.37140	-1831.70984	119.07772	208.35008	-1759.32788	65.98564	237.17656	-1954.57751	67.50491	319.28204	-1984.34790	109.12861	258.21634	-1975.87610	86.11069	210.49544	-1423.70386	1026.35278	163.95753	-1608.44385	983.08533	75.17852	-1418.15698	661.28088	50.88116	-1418.84534	599.68402	64.50079	-1493.67358	654.61975	48.81630	-1483.54932	593.78851	61.69796	0.00000	0.00000	0.00000	-1434.44922	503.60306	80.62339	-1285.65393	399.84290	73.93346	-1266.69250	355.71524	80.82252	-1337.85730	367.52359	75.55122	-1312.25439	329.37933	82.75061	-1163.19165	140.95374	126.17144	-1191.82092	146.43159	210.50131	-1094.00159	131.18747	177.22198	-1291.11523	42.95571	198.05934	-1312.20593	57.02634	148.23032	-1255.10657	38.98389	89.15868
2757	11.02400	-1434.73755	1014.45221	272.47476	-1638.14661	984.30756	306.95999	-1627.38098	669.92114	353.99731	-1657.55652	615.37958	342.60455	-1697.85144	701.40338	350.03513	-1717.99426	643.39972	339.21350	-1737.71033	540.29071	319.20990	-1723.30054	531.66034	202.30046	-1703.22424	346.29724	324.81976	-1719.56213	305.61154	320.22025	-1764.39343	362.84543	335.48083	-1770.73584	320.03568	327.74890	-1809.63831	99.06920	291.22888	-1833.12354	118.27804	207.99049	-1760.13599	66.38016	237.26736	-1955.47009	64.93152	319.33914	-1986.13464	106.25239	257.57748	-1977.08911	83.26823	209.91414	-1429.36450	1026.14661	164.20518	-1614.03564	982.57355	75.25468	-1423.72522	660.82916	51.92261	-1424.53076	599.16156	65.41148	-1499.34509	654.10236	49.32492	-1489.19080	593.22760	62.21052	0.00000	0.00000	0.00000	-1440.19312	502.94095	81.17301	-1290.34692	400.71350	74.20144	-1270.94604	356.74213	81.04220	-1342.24609	367.82968	75.71046	-1316.13623	329.91351	82.84878	-1164.99426	142.84389	125.74096	-1193.85120	148.00945	210.02701	-1095.88171	134.22545	176.87004	-1291.66931	43.13794	198.27547	-1312.12708	56.80393	148.19064	-1255.39807	39.08816	89.11499
